<?xml version="1.0" encoding="UTF-8"?>
<!DOCTYPE svg PUBLIC "-//W3C//DTD SVG 1.1//EN" "http://www.w3.org/Graphics/SVG/1.1/DTD/svg11.dtd">
<svg xmlns="http://www.w3.org/2000/svg" version="1.1" width="24px" height="24px" style="shape-rendering:geometricPrecision; text-rendering:geometricPrecision; image-rendering:optimizeQuality; fill-rule:evenodd; clip-rule:evenodd" xmlns:xlink="http://www.w3.org/1999/xlink">
<g><path style="opacity:0.835" fill="#b2b2b2" d="M -0.5,-0.5 C 7.5,-0.5 15.5,-0.5 23.5,-0.5C 23.5,7.5 23.5,15.5 23.5,23.5C 15.5,23.5 7.5,23.5 -0.5,23.5C -0.5,15.5 -0.5,7.5 -0.5,-0.5 Z M 17.5,2.5 C 21.31,3.75419 21.31,4.75419 17.5,5.5C 17.5,4.5 17.5,3.5 17.5,2.5 Z M 9.5,7.5 C 15.4877,7.66395 16.821,10.164 13.5,15C 7.40339,15.1475 6.07006,12.6475 9.5,7.5 Z M 2.5,9.5 C 3.18578,14.8469 6.18578,18.1802 11.5,19.5C 16.8883,18.4138 19.7216,15.0804 20,9.5C 20.4986,13.1516 20.6653,16.8183 20.5,20.5C 14.5,20.5 8.5,20.5 2.5,20.5C 2.5,16.8333 2.5,13.1667 2.5,9.5 Z"/></g>
</svg>
