<?xml version="1.0" encoding="UTF-8"?>
<!DOCTYPE svg PUBLIC "-//W3C//DTD SVG 1.1//EN" "http://www.w3.org/Graphics/SVG/1.1/DTD/svg11.dtd">
<svg xmlns="http://www.w3.org/2000/svg" version="1.1" width="24px" height="24px" style="shape-rendering:geometricPrecision; text-rendering:geometricPrecision; image-rendering:optimizeQuality; fill-rule:evenodd; clip-rule:evenodd" xmlns:xlink="http://www.w3.org/1999/xlink">
<g><path style="opacity:0.856" fill="#b2b2b2" d="M 23.5,1.5 C 23.5,1.83333 23.5,2.16667 23.5,2.5C 22.1667,2.83333 22.1667,3.16667 23.5,3.5C 23.5,4.16667 23.5,4.83333 23.5,5.5C 21.8921,10.2115 19.5587,14.7115 16.5,19C 11.0992,22.9386 5.43256,23.4386 -0.5,20.5C -0.5,19.8333 -0.5,19.1667 -0.5,18.5C 5.14601,18.8493 5.81268,17.3493 1.5,14C 0.419201,10.4835 0.419201,6.65021 1.5,2.5C 3.95428,4.81049 6.78761,6.47716 10,7.5C 10.3459,5.15226 11.5125,3.31892 13.5,2C 16.9355,1.98196 20.2688,1.81529 23.5,1.5 Z"/></g>
</svg>
