<?xml version="1.0" encoding="UTF-8"?>
<!DOCTYPE svg PUBLIC "-//W3C//DTD SVG 1.1//EN" "http://www.w3.org/Graphics/SVG/1.1/DTD/svg11.dtd">
<svg xmlns="http://www.w3.org/2000/svg" version="1.1" width="24px" height="24px" style="shape-rendering:geometricPrecision; text-rendering:geometricPrecision; image-rendering:optimizeQuality; fill-rule:evenodd; clip-rule:evenodd" xmlns:xlink="http://www.w3.org/1999/xlink">
<g><path style="opacity:0.813" fill="#b2b2b2" d="M -0.5,4.5 C 1.19919,4.33982 2.86586,4.50649 4.5,5C 5.54181,6.91796 6.70848,8.7513 8,10.5C 8.65138,8.76499 8.48471,7.09833 7.5,5.5C 12.7297,3.11713 15.2297,4.78379 15,10.5C 15.8629,5.71196 18.6962,3.71196 23.5,4.5C 23.5,5.83333 23.5,7.16667 23.5,8.5C 19.7445,10.9564 19.7445,13.2897 23.5,15.5C 23.5,16.5 23.5,17.5 23.5,18.5C 20.0295,19.1252 17.1962,18.1252 15,15.5C 13.1435,18.1189 10.6435,18.9523 7.5,18C 4.24633,15.2532 1.57967,12.0865 -0.5,8.5C -0.5,7.16667 -0.5,5.83333 -0.5,4.5 Z"/></g>
</svg>
